<svg viewBox="0 0 64 64" xmlns="http://www.w3.org/2000/svg" fill="none">
  <rect width="64" height="64" rx="14" fill="#0b1220"/>
  <g stroke="#3FA9FF" fill="none" stroke-linecap="round" stroke-linejoin="round">
    <path d="M16 10 L22 20 M48 10 L42 20" stroke-width="2.5"/>
    <path d="M32 8 C20 8 12 17 12 28 C12 33 13 37 12 41 C11 46 12 52 17 56 C22 59 27 60 32 60 C37 60 42 59 47 56 C52 52 53 46 52 41 C51 37 52 33 52 28 C52 17 44 8 32 8 Z" stroke-width="2.4" fill="#3FA9FF" fill-opacity="0.12"/>
    <circle cx="23" cy="29" r="7.5" stroke-width="2"/>
    <circle cx="41" cy="29" r="7.5" stroke-width="2"/>
  </g>
  <circle cx="23" cy="29" r="2.6" fill="#3FA9FF"/>
  <circle cx="41" cy="29" r="2.6" fill="#3FA9FF"/>
  <path d="M32 35 L29 41 Q32 43.5 35 41 Z" fill="#3FA9FF"/>
  <path d="M20 47 Q32 54 44 47" stroke="#3FA9FF" stroke-width="1.8" stroke-linecap="round" fill="none" opacity="0.7"/>
</svg>
